<svg width="1600" height="520" viewBox="0 0 1600 520" fill="none" xmlns="http://www.w3.org/2000/svg">
  <defs>
    <linearGradient id="bg" x1="0" y1="0" x2="1600" y2="520" gradientUnits="userSpaceOnUse">
      <stop stop-color="#063B1E"/>
      <stop offset="0.48" stop-color="#0A7A37"/>
      <stop offset="1" stop-color="#B8F241"/>
    </linearGradient>
    <radialGradient id="glow" cx="0" cy="0" r="1" gradientUnits="userSpaceOnUse" gradientTransform="translate(1220 250) rotate(90) scale(260)">
      <stop stop-color="#FFFFFF" stop-opacity="0.7"/>
      <stop offset="1" stop-color="#FFFFFF" stop-opacity="0"/>
    </radialGradient>
    <filter id="shadow" x="-20%" y="-20%" width="140%" height="140%">
      <feDropShadow dx="0" dy="18" stdDeviation="18" flood-color="#00170A" flood-opacity="0.38"/>
    </filter>
  </defs>

  <rect width="1600" height="520" rx="34" fill="url(#bg)"/>
  <rect width="1600" height="520" rx="34" fill="url(#glow)"/>

  <g opacity="0.26" stroke="#FFFFFF" stroke-width="4">
    <line x1="0" y1="86" x2="1600" y2="86"/>
    <line x1="0" y1="434" x2="1600" y2="434"/>
    <line x1="800" y1="0" x2="800" y2="520"/>
    <circle cx="800" cy="260" r="112"/>
    <rect x="0" y="128" width="210" height="264" rx="0"/>
    <rect x="1390" y="128" width="210" height="264" rx="0"/>
  </g>

  <g filter="url(#shadow)">
    <text x="190" y="318" font-size="132" font-weight="900" font-family="PingFang SC, Microsoft YaHei, Noto Sans CJK SC, Arial, sans-serif" fill="#FFFFFF" letter-spacing="12">世界杯</text>
    <text x="198" y="370" font-size="34" font-weight="600" font-family="Arial, sans-serif" fill="#DDFED7" letter-spacing="4">WORLD CUP PREDICTION SKILL</text>
  </g>

  <g transform="translate(1115 118)" filter="url(#shadow)">
    <circle cx="150" cy="150" r="138" fill="#F8FAF7"/>
    <circle cx="150" cy="150" r="138" stroke="#0B3B21" stroke-width="8"/>
    <polygon points="150,72 198,108 180,166 120,166 102,108" fill="#111827"/>
    <polygon points="74,132 120,166 102,220 48,220 34,166" fill="#111827"/>
    <polygon points="226,132 266,166 252,220 198,220 180,166" fill="#111827"/>
    <polygon points="118,244 180,244 198,286 102,286" fill="#111827"/>
    <line x1="102" y1="108" x2="34" y2="166" stroke="#111827" stroke-width="10"/>
    <line x1="198" y1="108" x2="266" y2="166" stroke="#111827" stroke-width="10"/>
    <line x1="120" y1="166" x2="74" y2="132" stroke="#111827" stroke-width="8"/>
    <line x1="180" y1="166" x2="226" y2="132" stroke="#111827" stroke-width="8"/>
    <line x1="120" y1="166" x2="118" y2="244" stroke="#111827" stroke-width="8"/>
    <line x1="180" y1="166" x2="180" y2="244" stroke="#111827" stroke-width="8"/>
  </g>
</svg>
