<svg width="1600" height="520" viewBox="0 0 1600 520" fill="none" xmlns="http://www.w3.org/2000/svg">
  <defs>
    <linearGradient id="bg" x1="0" y1="0" x2="1600" y2="520" gradientUnits="userSpaceOnUse">
      <stop offset="0" stop-color="#042B14"/>
      <stop offset="0.42" stop-color="#087634"/>
      <stop offset="1" stop-color="#9CF037"/>
    </linearGradient>
    <radialGradient id="centerGlow" cx="0" cy="0" r="1" gradientUnits="userSpaceOnUse" gradientTransform="translate(800 245) rotate(90) scale(330 610)">
      <stop offset="0" stop-color="#FFFFFF" stop-opacity="0.26"/>
      <stop offset="1" stop-color="#FFFFFF" stop-opacity="0"/>
    </radialGradient>
    <filter id="titleShadow" x="-25%" y="-35%" width="150%" height="170%">
      <feDropShadow dx="0" dy="18" stdDeviation="16" flood-color="#00180A" flood-opacity="0.45"/>
    </filter>
    <filter id="lightBlur" x="-30%" y="-30%" width="160%" height="160%">
      <feGaussianBlur stdDeviation="12"/>
    </filter>
  </defs>

  <rect width="1600" height="520" rx="34" fill="url(#bg)"/>
  <rect width="1600" height="520" rx="34" fill="url(#centerGlow)"/>

  <!-- stadium lights -->
  <g opacity="0.34">
    <polygon points="110,36 350,210 330,235 78,70" fill="#FFFFFF" opacity="0.16" filter="url(#lightBlur)"/>
    <polygon points="1490,36 1250,210 1270,235 1522,70" fill="#FFFFFF" opacity="0.16" filter="url(#lightBlur)"/>
    <g fill="#E9FFE4">
      <circle cx="98" cy="42" r="7"/><circle cx="122" cy="42" r="7"/><circle cx="146" cy="42" r="7"/>
      <circle cx="1454" cy="42" r="7"/><circle cx="1478" cy="42" r="7"/><circle cx="1502" cy="42" r="7"/>
    </g>
  </g>

  <!-- pitch lines -->
  <g opacity="0.24" stroke="#FFFFFF" stroke-width="4">
    <rect x="54" y="50" width="1492" height="420" rx="22"/>
    <line x1="800" y1="50" x2="800" y2="470"/>
    <circle cx="800" cy="260" r="108"/>
    <circle cx="800" cy="260" r="7" fill="#FFFFFF" stroke="none"/>
    <rect x="54" y="145" width="190" height="230"/>
    <rect x="1356" y="145" width="190" height="230"/>
    <rect x="54" y="206" width="82" height="108"/>
    <rect x="1464" y="206" width="82" height="108"/>
  </g>

  <!-- confetti and atmosphere -->
  <g opacity="0.32">
    <circle cx="310" cy="96" r="4" fill="#E8FFD9"/><circle cx="354" cy="118" r="3" fill="#D6FF77"/>
    <circle cx="1214" cy="92" r="4" fill="#E8FFD9"/><circle cx="1278" cy="132" r="3" fill="#D6FF77"/>
    <circle cx="520" cy="424" r="3" fill="#E8FFD9"/><circle cx="1090" cy="410" r="4" fill="#D6FF77"/>
    <circle cx="430" cy="352" r="3" fill="#E8FFD9"/><circle cx="1180" cy="340" r="4" fill="#D6FF77"/>
    <rect x="438" y="92" width="9" height="24" rx="4" fill="#E8FFD9" transform="rotate(22 438 92)"/>
    <rect x="1160" y="388" width="9" height="24" rx="4" fill="#E8FFD9" transform="rotate(-28 1160 388)"/>
    <rect x="1016" y="84" width="8" height="20" rx="4" fill="#D6FF77" transform="rotate(38 1016 84)"/>
    <rect x="592" y="402" width="8" height="20" rx="4" fill="#D6FF77" transform="rotate(-35 592 402)"/>
  </g>

  <!-- trophy outline behind title -->
  <g opacity="0.18" stroke="#FFFFFF" stroke-width="8" stroke-linecap="round" stroke-linejoin="round">
    <path d="M674 386h252"/>
    <path d="M725 386c34-42 42-88 42-134h66c0 46 8 92 42 134"/>
    <path d="M748 160h104v96c0 48-23 84-52 84s-52-36-52-84v-96z"/>
    <path d="M748 186h-66c0 66 32 98 76 104"/>
    <path d="M852 186h66c0 66-32 98-76 104"/>
  </g>

  <!-- centered title -->
  <g filter="url(#titleShadow)">
    <text x="800" y="292" text-anchor="middle" font-size="168" font-weight="900" font-family="PingFang SC, Microsoft YaHei, Noto Sans CJK SC, Arial, sans-serif" fill="#FFFFFF" letter-spacing="18">世界杯</text>
  </g>
</svg>
